<svg width="35" height="35" viewBox="0 0 35 35" fill="none" xmlns="http://www.w3.org/2000/svg">
<rect width="35" height="35" rx="10" fill="#778DFF"/>
<path d="M18.4344 26.9468C22.3541 26.5198 25.4955 23.473 25.9425 19.6616C26.5293 14.6781 22.5457 10.4359 17.5522 10.3816V8.14596C17.5522 8.02176 17.3926 7.95577 17.2848 8.0334L12.5508 11.414C12.471 11.4722 12.471 11.5847 12.5508 11.643L17.2848 15.0235C17.3926 15.1012 17.5522 15.0313 17.5522 14.911V12.6793C21.0608 12.7336 23.8709 15.6368 23.6314 19.1066C23.4278 22.0913 20.9251 24.5132 17.8556 24.7034C14.6025 24.9052 11.8363 22.6463 11.3414 19.6578C11.2496 19.1027 10.7506 18.6991 10.1758 18.6991C9.46134 18.6991 8.90252 19.3162 9.01428 20.0032C9.70882 24.2609 13.7523 27.4552 18.4344 26.9468Z" fill="white"/>
</svg>
